<?xml version="1.0" encoding="UTF-8"?>
<svg width="200" height="200" viewBox="0 0 200 200" fill="none" xmlns="http://www.w3.org/2000/svg">
  <defs>
    <linearGradient id="grad3" x1="0%" y1="0%" x2="100%" y2="100%">
      <stop offset="0%" stop-color="#5B7FFF" />
      <stop offset="100%" stop-color="#A5B4FC" />
    </linearGradient>
  </defs>
  
  <!-- Brain as Roof Concept -->
  <g transform="translate(100, 100)">
    <!-- House base -->
    <rect x="-45" y="0" width="90" height="55" rx="4" fill="url(#grad3)" opacity="0.9"/>
    
    <!-- Brain-shaped roof -->
    <g transform="translate(0, -20)">
      <!-- Left brain hemisphere -->
      <path d="M -40 0 Q -45 -15 -35 -30 Q -25 -40 -15 -35 Q -10 -30 -15 -20 Q -20 -10 -25 0 Q -30 5 -40 0" 
            fill="#5B7FFF" opacity="0.95"/>
      
      <!-- Right brain hemisphere -->
      <path d="M 40 0 Q 45 -15 35 -30 Q 25 -40 15 -35 Q 10 -30 15 -20 Q 20 -10 25 0 Q 30 5 40 0" 
            fill="#5B7FFF" opacity="0.95"/>
      
      <!-- Center connection -->
      <ellipse cx="0" cy="-15" rx="18" ry="25" fill="#5B7FFF" opacity="0.95"/>
      
      <!-- Brain texture -->
      <path d="M -20 -15 Q -15 -20 -10 -15 Q -5 -10 -10 -5" 
            fill="none" stroke="white" stroke-width="2" opacity="0.6"/>
      <path d="M 20 -15 Q 15 -20 10 -15 Q 5 -10 10 -5" 
            fill="none" stroke="white" stroke-width="2" opacity="0.6"/>
      <path d="M -5 -25 Q 0 -30 5 -25" 
            fill="none" stroke="white" stroke-width="2" opacity="0.6"/>
    </g>
    
    <!-- Windows -->
    <rect x="-30" y="15" width="20" height="20" rx="3" fill="white" opacity="0.8"/>
    <rect x="10" y="15" width="20" height="20" rx="3" fill="white" opacity="0.8"/>
    
    <!-- Door -->
    <rect x="-10" y="25" width="20" height="30" rx="2" fill="white" opacity="0.9"/>
    
    <!-- Smart indicator -->
    <circle cx="0" cy="-50" r="6" fill="#60A5FA">
      <animate attributeName="r" values="6;8;6" dur="2s" repeatCount="indefinite"/>
    </circle>
  </g>
</svg>