<?xml version="1.0" encoding="UTF-8"?>
<svg width="200" height="200" viewBox="0 0 200 200" fill="none" xmlns="http://www.w3.org/2000/svg">
  <defs>
    <linearGradient id="grad2" x1="0%" y1="0%" x2="100%" y2="100%">
      <stop offset="0%" stop-color="#5B7FFF" />
      <stop offset="50%" stop-color="#7C3AED" />
      <stop offset="100%" stop-color="#818CF8" />
    </linearGradient>
  </defs>
  
  <!-- Hexagon with Brain and House - Inspired by reference -->
  <g transform="translate(100, 100)">
    <!-- Hexagon base -->
    <path d="M 0 -70 L 60 -35 L 60 35 L 0 70 L -60 35 L -60 -35 Z" 
          fill="url(#grad2)" opacity="0.9"/>
    
    <!-- House roof inside hexagon -->
    <path d="M 0 -45 L 35 -15 L 35 40 L -35 40 L -35 -15 Z" 
          fill="white" opacity="0.95"/>
    
    <!-- Brain icon in upper part -->
    <g transform="translate(0, -25)" opacity="0.8">
      <!-- Brain outline -->
      <ellipse cx="0" cy="0" rx="20" ry="15" fill="none" stroke="#5B7FFF" stroke-width="2.5"/>
      
      <!-- Brain details -->
      <path d="M -10 -5 Q -5 -10 0 -5 Q 5 0 0 5 Q -5 10 -10 5 Q -15 0 -10 -5" 
            fill="none" stroke="#5B7FFF" stroke-width="1.5"/>
      <path d="M 10 -5 Q 5 -10 0 -5" fill="none" stroke="#5B7FFF" stroke-width="1.5"/>
      <path d="M 10 5 Q 5 10 0 5" fill="none" stroke="#5B7FFF" stroke-width="1.5"/>
      
      <!-- Center line -->
      <line x1="0" y1="-10" x2="0" y2="10" stroke="#5B7FFF" stroke-width="1.5"/>
    </g>
    
    <!-- Door -->
    <rect x="-8" y="15" width="16" height="25" rx="2" fill="#5B7FFF" opacity="0.8"/>
    
    <!-- Connection nodes -->
    <circle cx="-45" cy="0" r="4" fill="#60A5FA"/>
    <circle cx="45" cy="0" r="4" fill="#60A5FA"/>
    <circle cx="0" cy="-55" r="4" fill="#60A5FA">
      <animate attributeName="opacity" values="1;0.5;1" dur="2s" repeatCount="indefinite"/>
    </circle>
  </g>
</svg>