<?xml version="1.0" encoding="UTF-8"?>
<svg width="200" height="200" viewBox="0 0 200 200" fill="none" xmlns="http://www.w3.org/2000/svg">
  <defs>
    <linearGradient id="grad9" x1="0%" y1="0%" x2="100%" y2="100%">
      <stop offset="0%" stop-color="#5B7FFF" />
      <stop offset="50%" stop-color="#7C3AED" />
      <stop offset="100%" stop-color="#818CF8" />
    </linearGradient>
  </defs>
  
  <!-- Abstract Flowing Design -->
  <g transform="translate(100, 100)">
    <!-- Abstract house shape with curves -->
    <path d="M 0 -60 Q -10 -55 -20 -50 L -50 -20 Q -55 -10 -55 0 L -55 50 Q -50 55 -40 55 L 40 55 Q 50 55 55 50 L 55 0 Q 55 -10 50 -20 L 20 -50 Q 10 -55 0 -60" 
          fill="url(#grad9)" opacity="0.9"/>
    
    <!-- Brain waves flowing through -->
    <g opacity="0.5">
      <!-- Wave 1 -->
      <path d="M -40 -10 Q -30 -20 -20 -10 Q -10 0 0 -10 Q 10 -20 20 -10 Q 30 0 40 -10" 
            fill="none" stroke="white" stroke-width="2.5">
        <animate attributeName="d" 
                 values="M -40 -10 Q -30 -20 -20 -10 Q -10 0 0 -10 Q 10 -20 20 -10 Q 30 0 40 -10;
                         M -40 -10 Q -30 0 -20 -10 Q -10 -20 0 -10 Q 10 0 20 -10 Q 30 -20 40 -10;
                         M -40 -10 Q -30 -20 -20 -10 Q -10 0 0 -10 Q 10 -20 20 -10 Q 30 0 40 -10"
                 dur="3s" repeatCount="indefinite"/>
      </path>
      
      <!-- Wave 2 -->
      <path d="M -40 5 Q -30 -5 -20 5 Q -10 15 0 5 Q 10 -5 20 5 Q 30 15 40 5" 
            fill="none" stroke="white" stroke-width="2.5">
        <animate attributeName="d" 
                 values="M -40 5 Q -30 -5 -20 5 Q -10 15 0 5 Q 10 -5 20 5 Q 30 15 40 5;
                         M -40 5 Q -30 15 -20 5 Q -10 -5 0 5 Q 10 15 20 5 Q 30 -5 40 5;
                         M -40 5 Q -30 -5 -20 5 Q -10 15 0 5 Q 10 -5 20 5 Q 30 15 40 5"
                 dur="3s" repeatCount="indefinite"/>
      </path>
      
      <!-- Wave 3 -->
      <path d="M -40 20 Q -30 10 -20 20 Q -10 30 0 20 Q 10 10 20 20 Q 30 30 40 20" 
            fill="none" stroke="white" stroke-width="2.5">
        <animate attributeName="d" 
                 values="M -40 20 Q -30 10 -20 20 Q -10 30 0 20 Q 10 10 20 20 Q 30 30 40 20;
                         M -40 20 Q -30 30 -20 20 Q -10 10 0 20 Q 10 30 20 20 Q 30 10 40 20;
                         M -40 20 Q -30 10 -20 20 Q -10 30 0 20 Q 10 10 20 20 Q 30 30 40 20"
                 dur="3s" repeatCount="indefinite"/>
      </path>
    </g>
    
    <!-- Door -->
    <rect x="-10" y="30" width="20" height="25" rx="2" fill="white" opacity="0.9"/>
    
    <!-- Brain nodes -->
    <circle cx="-35" cy="0" r="4" fill="#60A5FA">
      <animate attributeName="opacity" values="1;0.5;1" dur="2s" repeatCount="indefinite"/>
    </circle>
    <circle cx="35" cy="0" r="4" fill="#60A5FA">
      <animate attributeName="opacity" values="1;0.5;1" dur="2s" repeatCount="indefinite" begin="0.5s"/>
    </circle>
    <circle cx="0" cy="-40" r="4" fill="#60A5FA">
      <animate attributeName="opacity" values="1;0.5;1" dur="2s" repeatCount="indefinite" begin="1s"/>
    </circle>
  </g>
</svg>