<?xml version="1.0" encoding="UTF-8"?>
<svg width="200" height="200" viewBox="0 0 200 200" fill="none" xmlns="http://www.w3.org/2000/svg">
  <defs>
    <linearGradient id="grad1" x1="0%" y1="0%" x2="100%" y2="100%">
      <stop offset="0%" stop-color="#5B7FFF" />
      <stop offset="100%" stop-color="#818CF8" />
    </linearGradient>
  </defs>
  
  <!-- Brain-House Fusion: House shape with brain texture -->
  <g transform="translate(100, 100)">
    <!-- House outline -->
    <path d="M 0 -60 L 50 -20 L 50 50 L -50 50 L -50 -20 Z" 
          fill="url(#grad1)" opacity="0.9"/>
    
    <!-- Brain pattern overlay -->
    <g opacity="0.3">
      <!-- Left hemisphere curves -->
      <path d="M -35 -10 Q -30 -20 -25 -10 Q -20 0 -25 10 Q -30 20 -35 10 Q -40 0 -35 -10" 
            fill="none" stroke="white" stroke-width="2"/>
      <path d="M -25 0 Q -20 -10 -15 0 Q -10 10 -15 20 Q -20 30 -25 20 Q -30 10 -25 0" 
            fill="none" stroke="white" stroke-width="2"/>
      
      <!-- Right hemisphere curves -->
      <path d="M 35 -10 Q 30 -20 25 -10 Q 20 0 25 10 Q 30 20 35 10 Q 40 0 35 -10" 
            fill="none" stroke="white" stroke-width="2"/>
      <path d="M 25 0 Q 20 -10 15 0 Q 10 10 15 20 Q 20 30 25 20 Q 30 10 25 0" 
            fill="none" stroke="white" stroke-width="2"/>
      
      <!-- Center connection -->
      <path d="M -15 10 Q 0 5 15 10" fill="none" stroke="white" stroke-width="2"/>
    </g>
    
    <!-- Door -->
    <rect x="-10" y="20" width="20" height="30" rx="2" fill="white" opacity="0.9"/>
    
    <!-- Window -->
    <rect x="-30" y="5" width="15" height="12" rx="2" fill="white" opacity="0.7"/>
    <rect x="15" y="5" width="15" height="12" rx="2" fill="white" opacity="0.7"/>
    
    <!-- AI indicator -->
    <circle cx="0" cy="-60" r="8" fill="#60A5FA">
      <animate attributeName="r" values="8;10;8" dur="2s" repeatCount="indefinite"/>
    </circle>
  </g>
</svg>