<?xml version="1.0" encoding="UTF-8"?>
<svg width="200" height="200" viewBox="0 0 200 200" fill="none" xmlns="http://www.w3.org/2000/svg">
  <defs>
    <linearGradient id="grad4" x1="0%" y1="0%" x2="100%" y2="100%">
      <stop offset="0%" stop-color="#5B7FFF" />
      <stop offset="100%" stop-color="#818CF8" />
    </linearGradient>
  </defs>
  
  <!-- Geometric Brain-House Hybrid -->
  <g transform="translate(100, 100)">
    <!-- Outer geometric shape -->
    <path d="M 0 -65 L 55 -30 L 55 30 L 20 55 L -20 55 L -55 30 L -55 -30 Z" 
          fill="url(#grad4)" opacity="0.2"/>
    
    <!-- Main house structure -->
    <path d="M 0 -55 L 45 -20 L 45 45 L -45 45 L -45 -20 Z" 
          fill="url(#grad4)" opacity="0.9"/>
    
    <!-- Brain neural network pattern -->
    <g opacity="0.4">
      <!-- Nodes -->
      <circle cx="-25" cy="-5" r="3" fill="white"/>
      <circle cx="-15" cy="10" r="3" fill="white"/>
      <circle cx="0" cy="-10" r="3" fill="white"/>
      <circle cx="15" cy="10" r="3" fill="white"/>
      <circle cx="25" cy="-5" r="3" fill="white"/>
      <circle cx="0" cy="20" r="3" fill="white"/>
      
      <!-- Connections -->
      <line x1="-25" y1="-5" x2="-15" y2="10" stroke="white" stroke-width="1.5"/>
      <line x1="-25" y1="-5" x2="0" y2="-10" stroke="white" stroke-width="1.5"/>
      <line x1="0" y1="-10" x2="25" y2="-5" stroke="white" stroke-width="1.5"/>
      <line x1="25" y1="-5" x2="15" y2="10" stroke="white" stroke-width="1.5"/>
      <line x1="-15" y1="10" x2="0" y2="20" stroke="white" stroke-width="1.5"/>
      <line x1="15" y1="10" x2="0" y2="20" stroke="white" stroke-width="1.5"/>
    </g>
    
    <!-- Door with window -->
    <rect x="-12" y="20" width="24" height="25" rx="2" fill="white" opacity="0.9"/>
    <rect x="-8" y="25" width="16" height="8" rx="1" fill="#5B7FFF" opacity="0.6"/>
    
    <!-- Side windows -->
    <rect x="-35" y="5" width="15" height="12" rx="2" fill="white" opacity="0.7"/>
    <rect x="20" y="5" width="15" height="12" rx="2" fill="white" opacity="0.7"/>
    
    <!-- AI pulse at top -->
    <circle cx="0" cy="-55" r="5" fill="#60A5FA" opacity="0.8">
      <animate attributeName="r" values="5;8;5" dur="2s" repeatCount="indefinite"/>
      <animate attributeName="opacity" values="0.8;0.4;0.8" dur="2s" repeatCount="indefinite"/>
    </circle>
  </g>
</svg>