<?xml version="1.0" encoding="UTF-8"?>
<svg width="200" height="200" viewBox="0 0 200 200" fill="none" xmlns="http://www.w3.org/2000/svg">
  <defs>
    <linearGradient id="grad10" x1="0%" y1="0%" x2="100%" y2="100%">
      <stop offset="0%" stop-color="#5B7FFF" />
      <stop offset="100%" stop-color="#818CF8" />
    </linearGradient>
  </defs>
  
  <!-- Shield/Badge Style with Brain and Home -->
  <g transform="translate(100, 100)">
    <!-- Shield outline -->
    <path d="M 0 -70 Q 50 -60 60 -40 L 60 20 Q 60 40 50 55 Q 30 70 0 75 Q -30 70 -50 55 Q -60 40 -60 20 L -60 -40 Q -50 -60 0 -70" 
          fill="url(#grad10)" opacity="0.9"/>
    
    <!-- House in upper section -->
    <g transform="translate(0, -30)">
      <path d="M 0 -25 L 30 -5 L 30 20 L -30 20 L -30 -5 Z" 
            fill="white" opacity="0.9"/>
      <rect x="-8" y="5" width="16" height="15" rx="1" fill="#5B7FFF" opacity="0.7"/>
    </g>
    
    <!-- Brain in lower section -->
    <g transform="translate(0, 25)">
      <!-- Brain outline -->
      <ellipse cx="0" cy="0" rx="35" ry="22" fill="none" stroke="white" stroke-width="3" opacity="0.8"/>
      
      <!-- Left hemisphere -->
      <path d="M -25 -8 Q -20 -15 -12 -10 Q -8 -5 -12 0 Q -16 8 -20 5 Q -25 0 -25 -8" 
            fill="none" stroke="white" stroke-width="2" opacity="0.6"/>
      <path d="M -12 -5 Q -8 -10 -4 -5 Q 0 0 -4 8 Q -8 12 -12 8 Q -16 3 -12 -5" 
            fill="none" stroke="white" stroke-width="2" opacity="0.6"/>
      
      <!-- Right hemisphere -->
      <path d="M 25 -8 Q 20 -15 12 -10 Q 8 -5 12 0 Q 16 8 20 5 Q 25 0 25 -8" 
            fill="none" stroke="white" stroke-width="2" opacity="0.6"/>
      <path d="M 12 -5 Q 8 -10 4 -5 Q 0 0 4 8 Q 8 12 12 8 Q 16 3 12 -5" 
            fill="none" stroke="white" stroke-width="2" opacity="0.6"/>
      
      <!-- Center line -->
      <line x1="0" y1="-18" x2="0" y2="18" stroke="white" stroke-width="2" opacity="0.4"/>
      
      <!-- Neural nodes -->
      <circle cx="-18" cy="0" r="2" fill="white"/>
      <circle cx="18" cy="0" r="2" fill="white"/>
      <circle cx="0" cy="-12" r="2" fill="white"/>
      <circle cx="0" cy="12" r="2" fill="white"/>
    </g>
    
    <!-- Smart indicator at top -->
    <circle cx="0" cy="-70" r="6" fill="#60A5FA">
      <animate attributeName="r" values="6;9;6" dur="2s" repeatCount="indefinite"/>
      <animate attributeName="opacity" values="1;0.5;1" dur="2s" repeatCount="indefinite"/>
    </circle>
    
    <!-- Connection line between house and brain -->
    <line x1="0" y1="-10" x2="0" y2="5" stroke="white" stroke-width="2" opacity="0.5" stroke-dasharray="4,4">
      <animate attributeName="stroke-dashoffset" from="0" to="8" dur="1s" repeatCount="indefinite"/>
    </line>
  </g>
</svg>