<?xml version="1.0" encoding="UTF-8"?>
<svg width="200" height="200" viewBox="0 0 200 200" fill="none" xmlns="http://www.w3.org/2000/svg">
  <defs>
    <!-- Modern gradient matching website theme -->
    <linearGradient id="modernGradient" x1="0%" y1="0%" x2="100%" y2="100%">
      <stop offset="0%" stop-color="#5B7FFF" />
      <stop offset="50%" stop-color="#818CF8" />
      <stop offset="100%" stop-color="#A5B4FC" />
    </linearGradient>
    
    <!-- Accent gradient for highlights -->
    <linearGradient id="accentGradient" x1="0%" y1="0%" x2="100%" y2="100%">
      <stop offset="0%" stop-color="#60A5FA" />
      <stop offset="100%" stop-color="#3B82F6" />
    </linearGradient>
    
    <!-- Glow effect -->
    <filter id="glow">
      <feGaussianBlur stdDeviation="3" result="coloredBlur"/>
      <feMerge>
        <feMergeNode in="coloredBlur"/>
        <feMergeNode in="SourceGraphic"/>
      </feMerge>
    </filter>
  </defs>
  
  <g transform="translate(100, 100)">
    <!-- Main house structure with modern design -->
    <path 
      d="M 0 -75 L 70 -15 L 70 65 L -70 65 L -70 -15 Z" 
      fill="url(#modernGradient)" 
      opacity="1"
      filter="url(#glow)"
    />
    
    <!-- Inner house detail (white) -->
    <path 
      d="M 0 -55 L 50 -5 L 50 45 L 25 45 L 25 15 L -25 15 L -25 45 L -50 45 L -50 -5 Z" 
      fill="white" 
      opacity="1"
    />
    
    <!-- Smart tech indicator - AI brain icon -->
    <g transform="translate(-55, -25)">
      <circle cx="0" cy="0" r="12" fill="url(#accentGradient)" opacity="0.2"/>
      <path 
        d="M -6 -3 Q -6 -6 -3 -6 L 3 -6 Q 6 -6 6 -3 L 6 3 Q 6 6 3 6 L -3 6 Q -6 6 -6 3 Z" 
        fill="none" 
        stroke="url(#accentGradient)" 
        stroke-width="1.5"
      />
      <circle cx="-3" cy="-2" r="1" fill="url(#accentGradient)"/>
      <circle cx="3" cy="-2" r="1" fill="url(#accentGradient)"/>
      <circle cx="0" cy="2" r="1" fill="url(#accentGradient)"/>
      <line x1="-3" y1="-2" x2="0" y2="2" stroke="url(#accentGradient)" stroke-width="1"/>
      <line x1="3" y1="-2" x2="0" y2="2" stroke="url(#accentGradient)" stroke-width="1"/>
    </g>
    
    <!-- Data visualization bars (right side) -->
    <g transform="translate(55, 10)">
      <rect x="-3" y="-25" width="6" height="25" rx="3" fill="#60A5FA" opacity="0.8">
        <animate attributeName="height" values="15;25;15" dur="2s" repeatCount="indefinite"/>
        <animate attributeName="y" values="-15;-25;-15" dur="2s" repeatCount="indefinite"/>
      </rect>
      <rect x="-3" y="5" width="6" height="18" rx="3" fill="#818CF8" opacity="0.8">
        <animate attributeName="height" values="12;18;12" dur="2.5s" repeatCount="indefinite"/>
        <animate attributeName="y" values="11;5;11" dur="2.5s" repeatCount="indefinite"/>
      </rect>
      <rect x="-3" y="28" width="6" height="22" rx="3" fill="#A5B4FC" opacity="0.8">
        <animate attributeName="height" values="16;22;16" dur="3s" repeatCount="indefinite"/>
        <animate attributeName="y" values="34;28;34" dur="3s" repeatCount="indefinite"/>
      </rect>
    </g>
    
    <!-- Sparkle/star accent (top right) -->
    <g transform="translate(60, -50)">
      <path 
        d="M 0 -6 L 1.5 -1.5 L 6 0 L 1.5 1.5 L 0 6 L -1.5 1.5 L -6 0 L -1.5 -1.5 Z" 
        fill="#60A5FA"
        opacity="0.9"
      >
        <animateTransform
          attributeName="transform"
          type="rotate"
          from="0 0 0"
          to="360 0 0"
          dur="4s"
          repeatCount="indefinite"
        />
      </path>
    </g>
    
    <!-- Innovation pulse circle -->
    <circle cx="0" cy="-75" r="4" fill="#60A5FA" opacity="0.6">
      <animate attributeName="r" values="4;6;4" dur="2s" repeatCount="indefinite"/>
      <animate attributeName="opacity" values="0.6;0.3;0.6" dur="2s" repeatCount="indefinite"/>
    </circle>
  </g>
</svg>